<mxfile host="app.diagrams.net" modified="2021-03-22T16:33:51.184Z" agent="5.0 (Windows NT 10.0; Win64; x64) AppleWebKit/537.36 (KHTML, like Gecko) Chrome/89.0.4389.90 Safari/537.36" etag="IYf5aCZ_pinYoCh8omUB" version="14.4.9" type="github">
  <diagram id="UEHNYRId7VkoQVZAQgSl" name="Page-1">
    <mxGraphModel dx="1038" dy="580" grid="0" gridSize="10" guides="1" tooltips="1" connect="1" arrows="1" fold="1" page="1" pageScale="1" pageWidth="827" pageHeight="1169" background="none" math="0" shadow="0">
      <root>
        <mxCell id="0" />
        <mxCell id="1" parent="0" />
        <mxCell id="AeDjy_cqXGCXI0YlumRu-6" style="edgeStyle=orthogonalEdgeStyle;rounded=0;orthogonalLoop=1;jettySize=auto;html=1;" edge="1" parent="1" source="AeDjy_cqXGCXI0YlumRu-1">
          <mxGeometry relative="1" as="geometry">
            <mxPoint x="459.20001220703125" y="182.40000915527344" as="targetPoint" />
          </mxGeometry>
        </mxCell>
        <mxCell id="AeDjy_cqXGCXI0YlumRu-1" value="" style="html=1;strokeColor=#6c8ebf;labelPosition=center;verticalLabelPosition=middle;verticalAlign=top;align=center;fontSize=12;outlineConnect=0;spacingTop=-6;shape=mxgraph.sitemap.products;fillColor=#dae8fc;gradientColor=#7ea6e0;" vertex="1" parent="1">
          <mxGeometry x="156" y="181" width="120" height="70" as="geometry" />
        </mxCell>
        <mxCell id="AeDjy_cqXGCXI0YlumRu-11" style="edgeStyle=orthogonalEdgeStyle;rounded=0;orthogonalLoop=1;jettySize=auto;html=1;" edge="1" parent="1" source="AeDjy_cqXGCXI0YlumRu-2">
          <mxGeometry relative="1" as="geometry">
            <mxPoint x="447.20001220703125" y="503.800048828125" as="targetPoint" />
          </mxGeometry>
        </mxCell>
        <mxCell id="AeDjy_cqXGCXI0YlumRu-2" value="&lt;b&gt;User&lt;/b&gt;" style="shape=umlActor;verticalLabelPosition=bottom;verticalAlign=top;html=1;outlineConnect=0;" vertex="1" parent="1">
          <mxGeometry x="209" y="444" width="30" height="60" as="geometry" />
        </mxCell>
        <mxCell id="AeDjy_cqXGCXI0YlumRu-7" style="edgeStyle=orthogonalEdgeStyle;rounded=0;orthogonalLoop=1;jettySize=auto;html=1;" edge="1" parent="1" source="AeDjy_cqXGCXI0YlumRu-3">
          <mxGeometry relative="1" as="geometry">
            <mxPoint x="512.7999877929688" y="180.0000457763672" as="targetPoint" />
          </mxGeometry>
        </mxCell>
        <mxCell id="AeDjy_cqXGCXI0YlumRu-3" value="" style="shape=image;html=1;verticalAlign=top;verticalLabelPosition=bottom;labelBackgroundColor=#ffffff;imageAspect=0;aspect=fixed;image=https://cdn0.iconfinder.com/data/icons/news-and-magazine/512/categories-128.png" vertex="1" parent="1">
          <mxGeometry x="642" y="162" width="128" height="128" as="geometry" />
        </mxCell>
        <mxCell id="AeDjy_cqXGCXI0YlumRu-4" value="&lt;b&gt;Categories&lt;/b&gt;" style="text;html=1;strokeColor=none;fillColor=none;align=center;verticalAlign=middle;whiteSpace=wrap;rounded=0;" vertex="1" parent="1">
          <mxGeometry x="675" y="127" width="68" height="20" as="geometry" />
        </mxCell>
        <mxCell id="AeDjy_cqXGCXI0YlumRu-5" value="&lt;b&gt;Products&lt;/b&gt;" style="text;html=1;strokeColor=none;fillColor=none;align=center;verticalAlign=middle;whiteSpace=wrap;rounded=0;" vertex="1" parent="1">
          <mxGeometry x="186" y="155" width="68" height="20" as="geometry" />
        </mxCell>
        <mxCell id="AeDjy_cqXGCXI0YlumRu-9" value="&lt;font color=&quot;#ffffff&quot;&gt;PK&lt;/font&gt;" style="rounded=1;whiteSpace=wrap;html=1;fillColor=#000000;gradientColor=none;arcSize=0;" vertex="1" parent="1">
          <mxGeometry x="459" y="168" width="53" height="32" as="geometry" />
        </mxCell>
        <mxCell id="AeDjy_cqXGCXI0YlumRu-12" style="edgeStyle=orthogonalEdgeStyle;rounded=0;orthogonalLoop=1;jettySize=auto;html=1;" edge="1" parent="1" source="AeDjy_cqXGCXI0YlumRu-10">
          <mxGeometry relative="1" as="geometry">
            <mxPoint x="516" y="539.800048828125" as="targetPoint" />
          </mxGeometry>
        </mxCell>
        <mxCell id="AeDjy_cqXGCXI0YlumRu-10" value="" style="shape=image;html=1;verticalAlign=top;verticalLabelPosition=bottom;labelBackgroundColor=#ffffff;imageAspect=0;aspect=fixed;image=https://cdn2.iconfinder.com/data/icons/shopping-elements-6/64/28-Orders_and_Check_Lists-128.png;fillColor=#000000;gradientColor=none;" vertex="1" parent="1">
          <mxGeometry x="614" y="413" width="128" height="128" as="geometry" />
        </mxCell>
        <mxCell id="AeDjy_cqXGCXI0YlumRu-13" value="&lt;font color=&quot;#ffffff&quot;&gt;User_Profile&lt;/font&gt;" style="whiteSpace=wrap;html=1;aspect=fixed;fillColor=#000000;gradientColor=none;" vertex="1" parent="1">
          <mxGeometry x="449" y="485" width="66" height="66" as="geometry" />
        </mxCell>
        <mxCell id="AeDjy_cqXGCXI0YlumRu-16" value="&lt;b&gt;Order/Bag&lt;/b&gt;" style="text;html=1;strokeColor=none;fillColor=none;align=center;verticalAlign=middle;whiteSpace=wrap;rounded=0;" vertex="1" parent="1">
          <mxGeometry x="617" y="405" width="124" height="20" as="geometry" />
        </mxCell>
        <mxCell id="AeDjy_cqXGCXI0YlumRu-17" value="&lt;b&gt;&lt;font style=&quot;font-size: 24px&quot;&gt;Data Model&lt;/font&gt;&lt;/b&gt;" style="text;html=1;strokeColor=none;fillColor=none;align=center;verticalAlign=middle;whiteSpace=wrap;rounded=0;" vertex="1" parent="1">
          <mxGeometry x="385" y="15" width="156" height="20" as="geometry" />
        </mxCell>
        <mxCell id="AeDjy_cqXGCXI0YlumRu-18" value="&lt;b&gt;Treasures Hair Collection&lt;/b&gt;" style="text;html=1;strokeColor=none;fillColor=none;align=center;verticalAlign=middle;whiteSpace=wrap;rounded=0;" vertex="1" parent="1">
          <mxGeometry x="392" y="58" width="166" height="20" as="geometry" />
        </mxCell>
      </root>
    </mxGraphModel>
  </diagram>
</mxfile>
